<mxfile host="Electron" agent="Mozilla/5.0 (X11; Linux x86_64) AppleWebKit/537.36 (KHTML, like Gecko) draw.io/24.7.8 Chrome/126.0.6478.234 Electron/31.4.0 Safari/537.36" version="24.7.8">
  <diagram name="PÃ¡gina-1" id="sQt1BkTnoBjVPcXC8FHe">
    <mxGraphModel dx="989" dy="578" grid="1" gridSize="10" guides="1" tooltips="1" connect="1" arrows="1" fold="1" page="0" pageScale="1" pageWidth="827" pageHeight="1169" math="0" shadow="0">
      <root>
        <mxCell id="0" />
        <mxCell id="1" parent="0" />
        <mxCell id="Gh6PR7uWzURlOeTNoXSC-1" value="Arduino nano" style="shape=process;whiteSpace=wrap;html=1;backgroundOutline=1;size=0.16666666666666666;" parent="1" vertex="1">
          <mxGeometry x="200" y="160" width="120" height="220" as="geometry" />
        </mxCell>
        <mxCell id="Gh6PR7uWzURlOeTNoXSC-2" value="TX1&lt;div style=&quot;font-size: 6px;&quot;&gt;&lt;br style=&quot;font-size: 6px;&quot;&gt;&lt;/div&gt;&lt;div style=&quot;font-size: 6px;&quot;&gt;RX0&lt;/div&gt;&lt;div style=&quot;font-size: 6px;&quot;&gt;&lt;br style=&quot;font-size: 6px;&quot;&gt;&lt;/div&gt;&lt;div style=&quot;font-size: 6px;&quot;&gt;RST&lt;/div&gt;&lt;div style=&quot;font-size: 6px;&quot;&gt;&lt;br style=&quot;font-size: 6px;&quot;&gt;&lt;/div&gt;&lt;div style=&quot;font-size: 6px;&quot;&gt;GND&lt;/div&gt;&lt;div style=&quot;font-size: 6px;&quot;&gt;&lt;br style=&quot;font-size: 6px;&quot;&gt;&lt;/div&gt;&lt;div style=&quot;font-size: 6px;&quot;&gt;D2&lt;/div&gt;&lt;div style=&quot;font-size: 6px;&quot;&gt;&lt;br style=&quot;font-size: 6px;&quot;&gt;&lt;/div&gt;&lt;div style=&quot;font-size: 6px;&quot;&gt;D3&lt;/div&gt;&lt;div style=&quot;font-size: 6px;&quot;&gt;&lt;br style=&quot;font-size: 6px;&quot;&gt;&lt;/div&gt;&lt;div style=&quot;font-size: 6px;&quot;&gt;D4&lt;/div&gt;&lt;div style=&quot;font-size: 6px;&quot;&gt;&lt;br style=&quot;font-size: 6px;&quot;&gt;&lt;/div&gt;&lt;div style=&quot;font-size: 6px;&quot;&gt;D5&lt;/div&gt;&lt;div style=&quot;font-size: 6px;&quot;&gt;&lt;br style=&quot;font-size: 6px;&quot;&gt;&lt;/div&gt;&lt;div style=&quot;font-size: 6px;&quot;&gt;D6&lt;/div&gt;&lt;div style=&quot;font-size: 6px;&quot;&gt;&lt;br style=&quot;font-size: 6px;&quot;&gt;&lt;/div&gt;&lt;div style=&quot;font-size: 6px;&quot;&gt;D7&lt;/div&gt;&lt;div style=&quot;font-size: 6px;&quot;&gt;&lt;br style=&quot;font-size: 6px;&quot;&gt;&lt;/div&gt;&lt;div style=&quot;font-size: 6px;&quot;&gt;D8&lt;/div&gt;&lt;div style=&quot;font-size: 6px;&quot;&gt;&lt;br style=&quot;font-size: 6px;&quot;&gt;&lt;/div&gt;&lt;div style=&quot;font-size: 6px;&quot;&gt;D9&lt;/div&gt;&lt;div style=&quot;font-size: 6px;&quot;&gt;&lt;br style=&quot;font-size: 6px;&quot;&gt;&lt;/div&gt;&lt;div style=&quot;font-size: 6px;&quot;&gt;D10&lt;/div&gt;&lt;div style=&quot;font-size: 6px;&quot;&gt;&lt;br style=&quot;font-size: 6px;&quot;&gt;&lt;/div&gt;&lt;div style=&quot;font-size: 6px;&quot;&gt;D11&lt;/div&gt;&lt;div style=&quot;font-size: 6px;&quot;&gt;&lt;br style=&quot;font-size: 6px;&quot;&gt;&lt;/div&gt;&lt;div style=&quot;font-size: 6px;&quot;&gt;D12&lt;/div&gt;" style="text;html=1;align=left;verticalAlign=top;whiteSpace=wrap;rounded=0;fontSize=6;" parent="1" vertex="1">
          <mxGeometry x="200" y="160" width="20" height="220" as="geometry" />
        </mxCell>
        <mxCell id="4Mrrwm515oB7f6x8GqXq-1" value="VIN&lt;div&gt;&lt;br&gt;&lt;/div&gt;&lt;div&gt;GND&lt;/div&gt;&lt;div&gt;&lt;br&gt;&lt;/div&gt;&lt;div&gt;RST&lt;/div&gt;&lt;div&gt;&lt;br&gt;&lt;/div&gt;&lt;div&gt;5V&lt;/div&gt;&lt;div&gt;&lt;br&gt;&lt;/div&gt;&lt;div&gt;A7&lt;/div&gt;&lt;div&gt;&lt;br&gt;&lt;/div&gt;&lt;div&gt;A6&lt;/div&gt;&lt;div&gt;&lt;br&gt;&lt;/div&gt;&lt;div&gt;A5&lt;/div&gt;&lt;div&gt;&lt;br&gt;&lt;/div&gt;&lt;div&gt;A4&lt;/div&gt;&lt;div&gt;&lt;br&gt;&lt;/div&gt;&lt;div&gt;A3&lt;/div&gt;&lt;div&gt;&lt;br&gt;&lt;/div&gt;&lt;div&gt;A2&lt;/div&gt;&lt;div&gt;&lt;br&gt;&lt;/div&gt;&lt;div&gt;A1&lt;/div&gt;&lt;div&gt;&lt;br&gt;&lt;/div&gt;&lt;div&gt;A0&lt;/div&gt;&lt;div&gt;&lt;br&gt;&lt;/div&gt;&lt;div&gt;REF&lt;/div&gt;&lt;div&gt;&lt;br&gt;&lt;/div&gt;&lt;div&gt;3V3&lt;/div&gt;&lt;div&gt;&lt;br&gt;&lt;/div&gt;&lt;div&gt;D13&lt;/div&gt;" style="text;html=1;align=right;verticalAlign=top;whiteSpace=wrap;rounded=0;fontSize=6;" parent="1" vertex="1">
          <mxGeometry x="300" y="160" width="20" height="220" as="geometry" />
        </mxCell>
        <mxCell id="4Mrrwm515oB7f6x8GqXq-2" value="4&quot; TFT SPI 480x320&lt;div&gt;Screen&lt;/div&gt;" style="shape=process;whiteSpace=wrap;html=1;backgroundOutline=1;size=0.25;" parent="1" vertex="1">
          <mxGeometry x="520" y="160" width="160" height="220" as="geometry" />
        </mxCell>
        <mxCell id="4Mrrwm515oB7f6x8GqXq-3" value="T_IRQ&lt;div&gt;&lt;br&gt;&lt;/div&gt;&lt;div&gt;&lt;div&gt;T_OUT&lt;/div&gt;&lt;div&gt;&lt;br&gt;&lt;/div&gt;&lt;div&gt;T_DIN&lt;/div&gt;&lt;div&gt;&lt;br&gt;&lt;/div&gt;&lt;div&gt;T_CS&lt;/div&gt;&lt;div&gt;&lt;br&gt;&lt;/div&gt;&lt;div&gt;T_CLK&lt;/div&gt;&lt;div&gt;&lt;br&gt;&lt;/div&gt;&lt;div&gt;MISO&lt;/div&gt;&lt;div&gt;&lt;br&gt;&lt;/div&gt;&lt;div&gt;LED&lt;/div&gt;&lt;div&gt;&lt;br&gt;&lt;/div&gt;&lt;div&gt;SCK&lt;/div&gt;&lt;div&gt;&lt;br&gt;&lt;/div&gt;&lt;div&gt;SDI&amp;nbsp;&lt;span style=&quot;background-color: initial;&quot;&gt;(MOSI)&lt;/span&gt;&lt;/div&gt;&lt;div&gt;&lt;br&gt;&lt;/div&gt;&lt;div&gt;D/C&lt;/div&gt;&lt;div&gt;&lt;br&gt;&lt;/div&gt;&lt;div&gt;RST&lt;/div&gt;&lt;div&gt;&lt;br&gt;&lt;/div&gt;&lt;div&gt;CS&lt;/div&gt;&lt;div&gt;&lt;br&gt;&lt;/div&gt;&lt;div&gt;GND&lt;/div&gt;&lt;div&gt;&lt;br&gt;&lt;/div&gt;&lt;div&gt;VCC&lt;/div&gt;&lt;/div&gt;" style="text;html=1;align=left;verticalAlign=middle;whiteSpace=wrap;rounded=0;fontSize=6;" parent="1" vertex="1">
          <mxGeometry x="520" y="160" width="30" height="220" as="geometry" />
        </mxCell>
        <mxCell id="4Mrrwm515oB7f6x8GqXq-4" value="SD_SCK&lt;div&gt;&lt;br&gt;&lt;/div&gt;&lt;div&gt;SD_MISO&lt;/div&gt;&lt;div&gt;&lt;br&gt;&lt;/div&gt;&lt;div&gt;SD_MOSI&lt;/div&gt;&lt;div&gt;&lt;br&gt;&lt;/div&gt;&lt;div&gt;SD_CS&lt;/div&gt;" style="text;html=1;align=right;verticalAlign=middle;whiteSpace=wrap;rounded=0;fontSize=6;" parent="1" vertex="1">
          <mxGeometry x="640" y="160" width="40" height="220" as="geometry" />
        </mxCell>
        <mxCell id="4Mrrwm515oB7f6x8GqXq-5" value="" style="swimlane;startSize=0;" parent="1" vertex="1">
          <mxGeometry x="560" y="340" width="80" height="40" as="geometry">
            <mxRectangle x="560" y="360" width="50" height="40" as="alternateBounds" />
          </mxGeometry>
        </mxCell>
        <mxCell id="4Mrrwm515oB7f6x8GqXq-7" value="J1 must BE jumped" style="text;html=1;align=center;verticalAlign=middle;whiteSpace=wrap;rounded=0;fontSize=8;" parent="1" vertex="1">
          <mxGeometry x="560" y="360" width="80" height="20" as="geometry" />
        </mxCell>
        <mxCell id="4Mrrwm515oB7f6x8GqXq-8" value="" style="endArrow=none;html=1;rounded=0;exitDx=0;exitDy=0;exitPerimeter=0;entryX=1.006;entryY=0.401;entryDx=0;entryDy=0;entryPerimeter=0;fillColor=#b1ddf0;strokeColor=#10739e;" parent="1" source="4Mrrwm515oB7f6x8GqXq-10" target="4Mrrwm515oB7f6x8GqXq-4" edge="1">
          <mxGeometry width="50" height="50" relative="1" as="geometry">
            <mxPoint x="380" y="270" as="sourcePoint" />
            <mxPoint x="720" y="400" as="targetPoint" />
            <Array as="points">
              <mxPoint x="440" y="370" />
              <mxPoint x="440" y="440" />
              <mxPoint x="720" y="440" />
              <mxPoint x="720" y="248" />
            </Array>
          </mxGeometry>
        </mxCell>
        <mxCell id="4Mrrwm515oB7f6x8GqXq-9" value="" style="endArrow=none;html=1;rounded=0;entryX=-0.012;entryY=0.53;entryDx=0;entryDy=0;entryPerimeter=0;fillColor=#b1ddf0;strokeColor=#10739e;" parent="1" target="4Mrrwm515oB7f6x8GqXq-3" edge="1">
          <mxGeometry width="50" height="50" relative="1" as="geometry">
            <mxPoint x="440" y="370" as="sourcePoint" />
            <mxPoint x="500" y="260" as="targetPoint" />
            <Array as="points">
              <mxPoint x="440" y="277" />
            </Array>
          </mxGeometry>
        </mxCell>
        <mxCell id="4Mrrwm515oB7f6x8GqXq-11" value="" style="endArrow=none;html=1;rounded=0;exitX=1.012;exitY=0.957;exitDx=0;exitDy=0;exitPerimeter=0;entryDx=0;entryDy=0;entryPerimeter=0;fillColor=#b1ddf0;strokeColor=#10739e;" parent="1" source="4Mrrwm515oB7f6x8GqXq-1" target="4Mrrwm515oB7f6x8GqXq-10" edge="1">
          <mxGeometry width="50" height="50" relative="1" as="geometry">
            <mxPoint x="320" y="371" as="sourcePoint" />
            <mxPoint x="680" y="248" as="targetPoint" />
            <Array as="points" />
          </mxGeometry>
        </mxCell>
        <mxCell id="4Mrrwm515oB7f6x8GqXq-10" value="" style="shape=waypoint;sketch=0;fillStyle=solid;size=6;pointerEvents=1;points=[];fillColor=#b1ddf0;resizable=0;rotatable=0;perimeter=centerPerimeter;snapToPoint=1;strokeColor=#10739e;" parent="1" vertex="1">
          <mxGeometry x="430" y="360" width="20" height="20" as="geometry" />
        </mxCell>
        <mxCell id="Bah9eGZiaObzP6uTwm-u-1" value="" style="endArrow=none;html=1;rounded=0;exitX=0.998;exitY=0.242;exitDx=0;exitDy=0;exitPerimeter=0;entryX=0.011;entryY=0.926;entryDx=0;entryDy=0;entryPerimeter=0;fillColor=#e51400;strokeColor=#B20000;" edge="1" parent="1" source="4Mrrwm515oB7f6x8GqXq-1" target="4Mrrwm515oB7f6x8GqXq-3">
          <mxGeometry width="50" height="50" relative="1" as="geometry">
            <mxPoint x="350" y="210" as="sourcePoint" />
            <mxPoint x="450" y="260" as="targetPoint" />
            <Array as="points">
              <mxPoint x="470" y="213" />
              <mxPoint x="470" y="364" />
            </Array>
          </mxGeometry>
        </mxCell>
        <mxCell id="Bah9eGZiaObzP6uTwm-u-2" value="" style="endArrow=none;html=1;rounded=0;exitX=1.003;exitY=0.108;exitDx=0;exitDy=0;exitPerimeter=0;entryX=-0.007;entryY=0.859;entryDx=0;entryDy=0;entryPerimeter=0;fillColor=#fad7ac;strokeColor=#b46504;" edge="1" parent="1" source="4Mrrwm515oB7f6x8GqXq-1" target="4Mrrwm515oB7f6x8GqXq-3">
          <mxGeometry width="50" height="50" relative="1" as="geometry">
            <mxPoint x="440" y="280" as="sourcePoint" />
            <mxPoint x="490" y="230" as="targetPoint" />
            <Array as="points">
              <mxPoint x="480" y="184" />
              <mxPoint x="480" y="349" />
            </Array>
          </mxGeometry>
        </mxCell>
        <mxCell id="Bah9eGZiaObzP6uTwm-u-3" value="" style="endArrow=none;html=1;rounded=0;exitX=0.017;exitY=0.961;exitDx=0;exitDy=0;exitPerimeter=0;fillColor=#6d8764;strokeColor=#3A5431;entryX=1.012;entryY=0.467;entryDx=0;entryDy=0;entryPerimeter=0;" edge="1" parent="1" source="Gh6PR7uWzURlOeTNoXSC-2" target="4Mrrwm515oB7f6x8GqXq-4">
          <mxGeometry width="50" height="50" relative="1" as="geometry">
            <mxPoint x="310" y="300" as="sourcePoint" />
            <mxPoint x="200" y="410" as="targetPoint" />
            <Array as="points">
              <mxPoint x="160" y="371" />
              <mxPoint x="160" y="450" />
              <mxPoint x="710" y="450" />
              <mxPoint x="710" y="263" />
            </Array>
          </mxGeometry>
        </mxCell>
        <mxCell id="Bah9eGZiaObzP6uTwm-u-4" value="" style="endArrow=none;html=1;rounded=0;fillColor=#647687;strokeColor=#314354;exitX=0.022;exitY=0.894;exitDx=0;exitDy=0;exitPerimeter=0;" edge="1" parent="1" source="Gh6PR7uWzURlOeTNoXSC-2">
          <mxGeometry width="50" height="50" relative="1" as="geometry">
            <mxPoint x="430" y="390" as="sourcePoint" />
            <mxPoint x="680" y="276" as="targetPoint" />
            <Array as="points">
              <mxPoint x="150" y="357" />
              <mxPoint x="150" y="460" />
              <mxPoint x="700" y="460" />
              <mxPoint x="700" y="276" />
            </Array>
          </mxGeometry>
        </mxCell>
        <mxCell id="Bah9eGZiaObzP6uTwm-u-5" value="" style="endArrow=none;html=1;rounded=0;entryX=0;entryY=0.832;entryDx=0;entryDy=0;entryPerimeter=0;fillColor=#76608a;strokeColor=#432D57;exitX=0.003;exitY=0.797;exitDx=0;exitDy=0;exitPerimeter=0;" edge="1" parent="1" source="4Mrrwm515oB7f6x8GqXq-3" target="Gh6PR7uWzURlOeTNoXSC-2">
          <mxGeometry width="50" height="50" relative="1" as="geometry">
            <mxPoint x="200" y="400" as="sourcePoint" />
            <mxPoint x="270" y="310" as="targetPoint" />
            <Array as="points">
              <mxPoint x="500" y="335" />
              <mxPoint x="500" y="400" />
              <mxPoint x="140" y="400" />
              <mxPoint x="140" y="343" />
            </Array>
          </mxGeometry>
        </mxCell>
        <mxCell id="Bah9eGZiaObzP6uTwm-u-6" value="" style="endArrow=none;html=1;rounded=0;entryX=0;entryY=0.764;entryDx=0;entryDy=0;entryPerimeter=0;fillColor=#e3c800;strokeColor=#B09500;exitX=0.015;exitY=0.726;exitDx=0;exitDy=0;exitPerimeter=0;" edge="1" parent="1" source="4Mrrwm515oB7f6x8GqXq-3" target="Gh6PR7uWzURlOeTNoXSC-2">
          <mxGeometry width="50" height="50" relative="1" as="geometry">
            <mxPoint x="200" y="410" as="sourcePoint" />
            <mxPoint x="270" y="310" as="targetPoint" />
            <Array as="points">
              <mxPoint x="510" y="320" />
              <mxPoint x="510" y="410" />
              <mxPoint x="130" y="410" />
              <mxPoint x="130" y="328" />
            </Array>
          </mxGeometry>
        </mxCell>
        <mxCell id="Bah9eGZiaObzP6uTwm-u-7" value="" style="endArrow=none;html=1;rounded=0;entryX=0;entryY=0.702;entryDx=0;entryDy=0;entryPerimeter=0;fillColor=#d0cee2;strokeColor=#56517e;exitX=0.037;exitY=0.663;exitDx=0;exitDy=0;exitPerimeter=0;" edge="1" parent="1" source="4Mrrwm515oB7f6x8GqXq-3" target="Gh6PR7uWzURlOeTNoXSC-2">
          <mxGeometry width="50" height="50" relative="1" as="geometry">
            <mxPoint x="200" y="420" as="sourcePoint" />
            <mxPoint x="270" y="270" as="targetPoint" />
            <Array as="points">
              <mxPoint x="450" y="306" />
              <mxPoint x="450" y="420" />
              <mxPoint x="120" y="420" />
              <mxPoint x="120" y="314" />
            </Array>
          </mxGeometry>
        </mxCell>
        <mxCell id="Bah9eGZiaObzP6uTwm-u-8" value="" style="endArrow=none;html=1;rounded=0;entryX=0.017;entryY=0.632;entryDx=0;entryDy=0;entryPerimeter=0;fillColor=#e6d0de;strokeColor=#996185;gradientColor=#d5739d;exitX=0.015;exitY=0.469;exitDx=0;exitDy=0;exitPerimeter=0;" edge="1" parent="1" source="4Mrrwm515oB7f6x8GqXq-3" target="Gh6PR7uWzURlOeTNoXSC-2">
          <mxGeometry width="50" height="50" relative="1" as="geometry">
            <mxPoint x="200" y="430" as="sourcePoint" />
            <mxPoint x="270" y="270" as="targetPoint" />
            <Array as="points">
              <mxPoint x="430" y="263" />
              <mxPoint x="430" y="430" />
              <mxPoint x="110" y="430" />
              <mxPoint x="110" y="299" />
            </Array>
          </mxGeometry>
        </mxCell>
        <mxCell id="Bah9eGZiaObzP6uTwm-u-9" value="" style="endArrow=none;html=1;rounded=0;entryX=0;entryY=0.5;entryDx=0;entryDy=0;fillColor=#fff2cc;gradientColor=#ffd966;strokeColor=#d6b656;exitX=0.997;exitY=0.594;exitDx=0;exitDy=0;exitPerimeter=0;" edge="1" parent="1" source="4Mrrwm515oB7f6x8GqXq-4" target="Gh6PR7uWzURlOeTNoXSC-2">
          <mxGeometry width="50" height="50" relative="1" as="geometry">
            <mxPoint x="200" y="470" as="sourcePoint" />
            <mxPoint x="270" y="270" as="targetPoint" />
            <Array as="points">
              <mxPoint x="690" y="291" />
              <mxPoint x="690" y="470" />
              <mxPoint x="100" y="470" />
              <mxPoint x="100" y="270" />
            </Array>
          </mxGeometry>
        </mxCell>
        <mxCell id="Bah9eGZiaObzP6uTwm-u-11" value="" style="endArrow=none;html=1;rounded=0;exitDx=0;exitDy=0;exitPerimeter=0;fillColor=#647687;strokeColor=#314354;entryX=0.003;entryY=0.597;entryDx=0;entryDy=0;entryPerimeter=0;" edge="1" parent="1" source="Bah9eGZiaObzP6uTwm-u-16" target="4Mrrwm515oB7f6x8GqXq-3">
          <mxGeometry width="50" height="50" relative="1" as="geometry">
            <mxPoint x="360" y="380" as="sourcePoint" />
            <mxPoint x="460" y="290" as="targetPoint" />
            <Array as="points">
              <mxPoint x="460" y="292" />
            </Array>
          </mxGeometry>
        </mxCell>
        <mxCell id="Bah9eGZiaObzP6uTwm-u-16" value="" style="shape=waypoint;sketch=0;fillStyle=solid;size=6;pointerEvents=1;points=[];fillColor=#647687;resizable=0;rotatable=0;perimeter=centerPerimeter;snapToPoint=1;fontColor=#ffffff;strokeColor=#314354;" vertex="1" parent="1">
          <mxGeometry x="450" y="450" width="20" height="20" as="geometry" />
        </mxCell>
        <mxCell id="Bah9eGZiaObzP6uTwm-u-59" value="" style="shape=image;verticalLabelPosition=bottom;labelBackgroundColor=default;verticalAlign=top;aspect=fixed;imageAspect=0;image=data:image/png,iVBORw0KGgoAAAANSUhEUgAAAV8AAAEMCAYAAABjr7XYAAAABHNCSVQICAgIfAhkiAAAABl0RVh0U29mdHdhcmUAZ25vbWUtc2NyZWVuc2hvdO8Dvz4AAAAmdEVYdENyZWF0aW9uIFRpbWUAanVlIDI5IGFnbyAyMDI0IDIwOjA2OjI4z7KnvwAAIABJREFUeJzs3XtYVNX++PE3w0XBkRABL4ngPRRMMRUtL6QGxslLJN5OlGgHf+kZPJJmSsejybHsWGpRfU+YaUJGec8LiiDKUZKvmmaWeURQLCRAbnLV4fcH35mcZkAY0Ynh83oenwf3XmvvtfnMfNiz1p61LEpvllQDRH+6kVkvvoAwDxJP8yLxNC/Rn25EYepGCCFEc2SxLiqqGmDWiy8Q/elGU7dHCCGaBYs7ux12bN2Kg4ODqdsk7lFBQQGJiYk8+eSTEk8zIPE0L5p4Wt250cHBAScnJ1O1STQyiad5kXiaF+nzFUIIE5DkK4QQJiDJVwghTECSrxBCmIDVXQtYWbFq1SpatWoFQFpaGtHR0Y3WAG9vb0JDQwFYt24d33//vVHHCQ0Nxdvbm7KyMubNm9do7TMXbdu2ZfTo0Xh4eODo6Ii1tTUVFRVcv36dM2fOcPDgQaqqqkzdTFFPDY3n3/72Nx555BGdY1RVVVFcXExmZiZpaWmcPn0atVr9oC+l2bpr8vXy8tImXoB+/frRsmVLysvL72vDGqq4uJi8vLw/XLv+CDp16sQrr7yCra0tALdu3aK8vBw7Ozvc3d1xd3enV69erFu3jtu3b5u4teJuGiue1tbWODo64ujoSP/+/bl06RIfffQRRUVFD+pSmrW7Jl8fHx8AioqKsLe3x9raGm9vb44dO1avEygUCqqrq6murr63lt5FbGzsfT1+UxYQEICtrS1qtZqPP/6Y06dPU11djb29PX/+85959NFHeeSRR+jbty+nT59ulHM+qLg3R/cazwULFqBWq7GxsaFTp06MGTOGnj170q1bN+bMmcNbb70ld8APQJ3Jt1WrVnh6egJw/Phx+vTpQ6dOnRgyZIjB5Dtv3jw8PDxIT08nNjaWkJAQOnTowGuvvcaNGzd47LHHCAgIwMXFheLiYlJSUsjOzjZ47qVLl9KxY0cuX77Mm2++qd1eWzeFoW6HsLAwevfuTXp6Ou+//z5BQUF4eXlhYWHBpUuX+Pzzz8nLy9M5r729PWPHjsXLy4s2bdpw+/ZtfvnlF1JTU0lOTm6SL0oXFxeg5tPBqVOntNuLiorYvHkz//3vf8nNzeXKlSs69ZydnfnTn/7EI488glKppKCggB9//JE9e/aQn5+vLXe3uHfs2JGAgAB69eqFnZ0dhYWFnDp1it27d+t9UqlvWWNiay6MjadGSUmJ9nWcn5/Pd999x+zZs+nXrx/u7u4MGjSI1NTU+38hzVydA24DBw7EyqomP588eZKTJ08C0KNHDxwdHfXKV1RUAGBra6t9A2r079+fl156iY4dO1JdXU1hYSFjxozB39+/0S7m9yorKwFQKpXMnTuX7t27U1xcjJ2dHV5eXvz1r39FofjtV+Dk5MTrr7/Ok08+Sdu2bcnJyeHmzZu4u7szZcoUZs+ejYWFxX1r7/2iSUIPPfQQEyZM0OlGKioq4sCBA5w6dUonWXXs2JHFixfj4+NDq1atuHbtGkqlkieeeILXXntN52H/uuLepUsXXnvtNR577DEqKio4ffo01tbWjB49mrCwMJ3ff0PKNjS25sSYeNalurqarVu3av/v7e3duA0WBtV55ztkyBAAcnJyyMzM5ObNm4wfPx4LCwsGDx7Mvn37dMpr/pq2b9+e8+fP869//YuKigpu377NuHHjgJpO/hUrVpCdnY29vT2vvfba/bgunfa4uLhw6dIlVq1aRXV1NTNmzMDHx4cOHTrQvXt3fvrpJwCmTZuGvb09arWad955h4sXLwIQFBTEqFGjePTRRxk0aBDffPPNfWvz/bB//3569+6NtbU1Y8eOxd/fn2vXrpGens5///tfzp07x82bN3XqTJkyBTs7OyoqKoiMjOT69es4ODiwdOlS7O3tGTduHJ988glQd9xnz56NjY0NeXl5LF++nIqKCtq0acOyZcvo2rUrPj4+2k9RU6ZMqXfZhsbWnBgTz7vJycnRdi22b9/+PrVc3KnWW4N27drh7u4OwIkTJwDIzc0lIyMD+K0v2BALCwu+/PJLbt68ya1bt1AqlXTs2BGA7777TtvVUFRUREpKSmNcx13t3LlT2/9450cqzR1cq1at6N27t7aNmsQL8PXXX2vrDhgw4IG0tzGlp6fzz3/+k//93/+lsrISCwsLOnXqxPDhwwkJCWHVqlU899xz2rv6Vq1a0bNnT6Dmd3H9+nWg5jvp69atIyoqymC30+/j3rp1a+1r6OzZs9o75Bs3bnDhwgWg5hMR1HT31Lfs790ttuamofGsr7KyMgBatGhxP5otfqfWO987k+vJkye1H+HS0tJwd3enffv2uLu7a5PxndRqtU5f7p2TgeTm5uqU1byx76eqqipu3Lih/f+do7maF5qLi4v2xfr7fujS0lKKi4uxt7dvsm/on3/+mY8//hgrKyvc3Nzo0qULPXv2pE+fPlhZWTFmzBjtR9Y7fxe//vqrznEuX75c6zl+H/c7f1e+vr74+vrq1dHcZTWk7J3qE1tz1JB41pdSqQSQpx0eEIPJV9OtoLF06VKDlX18fAwm34qKCp1R7rr+AltaWtbZwN/X1fRBN8StW7d0/m9oBP5uo/KadjT10ftbt25x6dIlLl26REJCAi4uLrz22mvY2dkxaNAgDhw4oPM7b0i/6e/jfufPly9fJj09Xa+OZhCtIWV/fz13aurxaaj6xLM+XF1dtX3HP//88/1ssvg/BjNZjx49aNu27V0rP/bYY3z55Zd3fTb0zjsTZ2dnnX219S/dOaByp3bt2t21Xcb49ddfqa6uxsLCQmfACKB169badjyIO/XG5ObmxujRo2nXrh0JCQnaLiSNnJwccnNz6dy5M/b29oDup5Pfx6t///60a9eOW7dukZCQUOe57xzwycrKIi4urlHKNmfGxPNuFAoFzz77rPb/8qTDg2Ew+WoG2gCWL1/OtWvXdPaPGTOG5557jtatW9OnTx/Onj1b50mKi4vJzs6mffv2eHp60rFjR37++WccHR154oknDNb59ddfcXd3x8nJiW7dunHp0iXatGnDsGHDGnqN9XLz5k2+//57PD098fT01J7TwsKCCRMmaO8Gm9pgW2FhIf3798fa2ppp06ZhaWnJ+fPnKS0tpXXr1gwePBhXV1fgty6FoqIiLl26RLdu3fDy8qJDhw788ssvODg4MH36dFq3bs25c+fumnyLiorIyMjA3d0db29vvv76awoKCrC2tmbWrFlYWlpy6tQpjh071qCyzZkx8fw9W1tbqqursbS0pH379gQEBODh4QHU9Lf/8MMPD+x6mjO95Kv5EgVARkaGXuKFmr+MEydOxNLSkiFDhtw1+QLs3buXkJAQrK2tWbx4MdnZ2bRr147MzEztX+g7P+6mpKQwcOBAoOarkVevXqVjx458++232v7oxn7sKzY2loULF+Lg4MArr7zCzz//TOvWrXnooYcA+M9//sOZM2ca9Zz3W0FBATExMQQHB2Nra8uLL75osFxhYaHO40aff/45r7zyCi1btmTJkiX8/PPPtGvXjpYtW1JSUlLvO9MvvviC+fPn06pVK5YtW8bVq1dxcXHhoYceori4mC+++MKoss2VsfG80zvvvGNw+w8//MCnn37aSC0Vd6OXfDVfHwZqfRKhuLiYs2fP0r9/f/r27YudnR2lpaV1nuibb76hRYsWPPXUU7Rp0wZbW1u+/vpr0tPTeeWVVwDdAZIff/yRDRs24O/vj5OTE0qlkm3btvHTTz9pk6+NjY1xV12LvLw8IiMjGTt2LH379qVDhw5UVVVx6dIljh49yvHjxxv1fA/K8ePHuXr1Kr6+vtpntK2srCgvL+f69eucO3eOxMREnceTrl69yj//+U/tlyw6depEcXExJ0+e5Ouvv9b5kkVd0tPTeeuttwgICKBHjx507dqVoqIi/vOf/7Bnzx6d7oaGlG3OjImnIZrn7a9du0ZqaippaWnNrs/clHSWETp86FCTHc0Xv8nNzWXbtm08++yzEk8zIPE0L5p4mudXgIQQ4g9Okq8QQpiATp9vQUGBqdohGpEmjhJP8yDxNC+aOFqsi4rS9rCr5swxWYOEEKI50RlwKy4o0H6/XjRdGRkZLFmyhMjISImnGZB4mhdNPHW6HTQz4AvzIPE0LxJP8yIDbkIIYQKSfIUQwgQk+QohhAlI8hVCCBMwOKvZZ599xtq1a2ut9M0332Bpaclf//pXjh8/zrZt2+jcuXOt5T/55BM++OAD/v73v2uXExIPxr3G6ObNm8TFxZGcnExmZiYVFRW0bduWHj16MG7cOEaOHGnweMbWE6K5MJh8i4uLAQgPD8fW1lZvv2aC7UmTJnH8+HF27NiBSqUyeILq6mp27txJ69ateeqppxqr3aKe7iVGly5dIiwsjOzsbLy9vZk6dSp2dnZkZ2eTmJjIkSNH8PPzY9myZTqT3BtbT4jmxOArv6SkBIDAwMA6Zw574oknaNeuHV9//TUvv/yywTdSWloa165dY+rUqdrZ0sSDY2yMSkpKCAsLIz8/n7fffltvWR+VSsUbb7zBvn376NatGyEhIfdUT4jmxmCfb0lJCTY2NnedslEzA35+fj7JyckGy+zYsQOoSeTiwTM2RnFxcWRnZ/PSSy8ZXE/NxsaGiIgIgoODdRa2NLaeEM2NweRbXFyss3xPZWVlrfN8TpgwASsrK+0b+E6FhYUcPnyYxx57TL6ZY0LGxCgpKQmFQsGkSZNqPW6LFi1QqVQ6SdTYekI0N7UmXwsLC9566y1Gjx7N0KFDeeKJJwgPD+fKlSs6Zdu2bYuvry/ffPMNv/zyi86+PXv2UFlZWecbUdx/xsQoPT0dNzc3vTX07sbYekI0N7Um37y8PPLy8pg/fz7vvPMOkydP5vjx48ycOZOcnByd8s899xxqtZqdO3fqbN+5cydOTk6MGDHi/l2BqJeGxEitVlNRUaFdzba+jK0nRHNkMPm+99577N27l1WrVvH0008zfPhwVCoVixcv5saNG8TExOiUHzBgAF26dGHXrl2o1WqgZiG+S5cuaT/yCtNqSIwUCgX29vYUFhY26BzG1hOiOTKYfF1cXHBxcdHbPnr0aCwsLLh48aLevsDAQHJycrSry+7YsQOFQsHEiRMbucnCWA2Jkbu7O1lZWTrLyNeHsfWEaG4MJt/S0lLts753Ki8vp7q62uAjY3/6059o2bIlu3btoqKigoSEBIYPH067du0av9XCKA2J0ZgxY6iurmbjxo21Hu/27duEhISwZs2ae64nRHOjl3yLiooYNWoUYWFh3L59W2fftm3bAHjsscf0DqRUKvH39+c///kP8fHxlJaW8txzz92nZgtjNCRGEydOpEuXLmzZssXgMvEVFRVERERw9uxZHn744XuuJ0Rzo9cZa29vz5///Gc2bNjArFmzGDt2LFZWVpw6dYr4+Hh69erFs88+a/Bgzz33HDt27GDNmjV06tSJwYMH3/cLEA1T3xi1bNmS1atXEx4ezqpVq9i+fTtDhw7F3t6e7OxsDh06xI0bN5g1a5ZOAje2nhDNjcGRsDlz5uDq6sr27dv56KOPKCsro0OHDrz44ovMmDGj1m+qPfLII/Tp04fvv/+eGTNmYGFhcV8bLxquITHq3LkzmzZtYvfu3cTHx7N7925KSkpwdnbGx8eHSZMm4eXl1Wj1hGhOan0MYdy4cUZNglNXX5/4Y2hIjGxtbQkKCiIoKKhB5zC2nhDNhUwpKYQQJiDJVwghTECn2yEjI8NEzRCNSRNHiad5kHiaF00cLdZFRWlnzFHNmWOq9gghRLNiUXqzpBog+tONFBcUyOxjZiAjI4MlS5YQGRkp8TQDEk/zoomnTreDu7s7vXr1MlWbRCOTeJoXiad5kQE3IYQwAUm+QghhApJ8hRDCBCT5CiGECdQ5y3lJSQlbt24lOTmZjIwMSktLcXBwwNXVlTFjxjBhwgS9RTZjY2N55513cHFx4auvvsLOzk7vuHFxcaxatYovvviCbt266dS7k62tLY6Ojnh6ehIQEMDQoUPv9XqbNYmnEH8ctSbfCxcu8Le//Y2cnBy8vb2ZPHkySqWSvLw8UlJSWLVqFbt27WLt2rW0bdtWr35OTg7vv/8+CxcubFCDAgMD8fDwAGrmFc7KyiI5OZn4+HiGDRtGZGSkwQQg6ibxFOKPxWDyLSoqYt68eRQXF7Nu3Tq9OxSVSkV0dDQfffQR//znP1m9erXeMUaPHs1XX33F008/jaenZ70bNGjQIEaNGqWzLTw8nKioKDZt2kRERITeHZWom8RTiD8eg8n3888/59dff2X+/Pm1fjScNWsWLVq0oGvXrlRXV+tNTfjSSy/x7bffsmLFCjZv3nxP67hZWlqiUqm4evUqSUlJpKWlMXDgQKOP19xIPIX44zE44Hb48GGsra3vuv7a888/z+OPP25wTtgWLVqwYMEC/vvf/7Jp06ZGaey0adMASExMbJTjNRcSTyH+eAwm34yMDNzd3bG1tTX6wNXV1YwaNYrhw4cTHR3N1atXjT6WRu/evQG4fPnyPR+rOZF4CvHHo5d8q6qqqKqqMjgIcuvWLX7++We9f2VlZbWe4NVXX8XKyop//vOf99xYGxsbFAoF5eXl93ys5kLiKcQfk17HnbW1NUqlkqKiIr3CmZmZTJ48WW/78uXLefrppw2eoF27dsyePZt33nmHXbt2GbU6hkZBQQFqtdrgaLwwTOIpxB+TwVGTrl27cu7cOQoLC3nooYe02zt06MC//vUv7f8vXrzI//zP/9z1JFOmTGH//v2sWbOGYcOGGd3YtLQ0ALp37270MZojiacQfzwG+3z9/f1Rq9XExMTobLezs2PkyJHaf48++mj9TqJQsGTJEkpKSli9ejXW1tYNbqharSY2NhaAsWPHNrh+cybxFOKPx2DynTBhAj179uTTTz9l9+7dBitWVlZy5MiRmoMo7v4t5V69ejFt2jT279/Pt99+26BGVlVVsWLFCs6dO0dQUJDMadpAEk8h/ngMdjvY2NiwevVqFi5cyLJly/jyyy8ZMmQIbdu2pbS0lPT0dFJSUigpKWHKlCl6D9HXZvbs2SQmJrJ3795ay5w4cYLi4mKgJiFkZWWRkJBATk4Ofn5+zJs3z4jLbN4knkL88dT6pHyHDh345JNP2LdvH/v372f37t3k5+djZ2dHp06dmDhxIhMmTMDV1bXeJ2vZsiWLFi1CpVLVWmbr1q3any0tLXFycsLDw4NFixYxfPjwep9L6JJ4CvHHorOMUFsHB5kp3wxcuHCB6dOnExMTI/E0AxJP86KJp0wpKYQQJiDJVwghTECnz1eznrxo2jRxlHiaB4mnedHE0WJdVFS1ZqNqzhxTtUcIIZoVnQG34oICeebSDGRkZLBkyRIiIyMlnmZA4mleNPHU6XZwd3eX0VQzIvE0LxJP8yIDbkIIYQKSfIUQwgQk+QohhAlI8hVCCBMwOLdDbGys3oqytra2ODo64unpSUBAgMGFGD/77DPWrl1b68m++eYbLC0t77HJQgiAmzdvEhcXR3JyMpmZmVRUVNC2bVt69OjBuHHjGDlypME6sbGxJCcnc+XKFcrLy7G1tcXNzQ1fX1+Cg4PlPfqA1LkEbWBgIB4eHgCUlpaSlZVFcnIy8fHxDBs2jMjISJ3laTSzV4WHhxtcL6w+UxUKIe7u0qVLhIWFkZ2djbe3N1OnTsXOzo7s7GwSExM5cuQIfn5+LFu2TLvSdFlZGTNmzCAjIwM/Pz8CAwNRKpXcuHGDpKQkoqKiOHPmDGvWrDHx1TUPdSbfQYMG6U0vGB4eTlRUFJs2bSIiIkLnDrmkpASoSdo2Njb3oblCiJKSEsLCwsjPz+ftt9/G19dXZ79KpeKNN95g3759dOvWjZCQEAD2799Peno6KpWK4OBgnTpBQUEsXbqUPXv2kJqaio+PzwO7nuaqzuRriKWlJSqViqtXr5KUlERaWhoDBw4Eal4UNjY2kniFuI/i4uLIzs5mzpw5eokXauZvjoiIwNnZmf79+2u35+fnA9CnTx+Dx12wYAEqlUrW1HtAjO4HmDZtGgCJiYnabcXFxSiVSu3/Kysrqa6u1qsrhDBeUlISCoWCSZMm1VqmRYsWqFQqneTr6ekJQHR0NHl5eXp1lEqlJN4HqMF3vhq9e/cG4PLly9ptxcXFWFhY8NZbb3Hw4EEKCgpo0aIFPj4+hIWF0blz53tvsRDNXHp6Om5ubjo3OvUxePBggoKCiIuLIyAggL59+9K/f38effRR+vXrpzN+I+4/o5OvjY0NCoWC8vJy7bbi4mLy8vLIy8tj/vz5KJVKvv32W7Zs2cLZs2eJiYnBxcWlURouRHOkVqupqKigVatWRtVfuHAh/v7+7N27l7S0NNavXw+AtbU1Q4YMITQ0VL7C/IAYnXwLCgpQq9U6H1Pee+89AJ0EO3z4cLp27co//vEPYmJi+Nvf/nYPzRWieVMoFNjb21NYWGj0Mfr27Uvfvn2BmvfxmTNnOHz4MPv27SM1NZXo6GjtJ1tx/xjd55uWlgZA9+7dtdtcXFwM3tmOHj0aCwsLLl68aOzphBD/x93dnaysLHJzc+/5WA4ODowYMYKlS5eydu1aKisriYmJaYRWirsxKvmq1WpiY2MBGDt2rHZ7aWmp9lnfO5WXl1NdXU3Lli2NbKYQQmPMmDFUV1ezcePGWsvcvn2bkJAQ7TO7t27d4sCBA3WuND1gwAAUCgXXr19v9DYLfQ1OvlVVVaxYsYJz584RFBSknV+0qKiIUaNGERYWxu3bt3XqbNu2DYDHHnvs3lssRDM3ceJEunTpwpYtW4iLi9PbX1FRQUREBGfPnuXhhx8GwMrKig0bNvDGG2/w3XffGTxufHw8arWanj173tf2ixp19vmeOHFCeydbWVlJVlYWCQkJ5OTk4Ofnx7x587Rl7e3t+fOf/8yGDRuYNWsWY8eOxcrKilOnThEfH0+vXr149tln7+/VCNEMtGzZktWrVxMeHs6qVavYvn07Q4cOxd7enuzsbA4dOsSNGzeYNWsWzz33nLbe4sWLCQsLIzQ0lBEjRuDl5YVSqaSwsJDTp0+TkpJCp06dmDVrlgmvrvmoM/lu3bpV+7OlpSVOTk54eHiwaNEihg8frld+zpw5uLq6sn37dj766CPKysro0KEDL774IjNmzJBuByEaSefOndm0aRO7d+8mPj6e3bt3U1JSgrOzMz4+PkyaNAkvLy+dOl5eXsTGxrJt2zZSUlJIS0ujqKgIOzs73NzcmD17NpMnTzb6SQrRMAaT77Rp07RfomiocePGMW7cuHtqlBDi7mxtbQkKCiIoKKjeddq3b8/LL7/Myy+/fB9bJupDZroRQggTkOQrhBAmoNPtoFlPXjRtmjhKPM2DxNO8aOJosS4qSjvzjWrOHFO1RwghmhWL0psl1QDRn26kuKBA+9yuaLoyMjJYsmQJkZGREk8zIPE0L5p46nQ7uLu7y6QaZkTiaV4knuZFBtyEEMIEJPkKIYQJSPIVQggTkOQrhBAmYPDrxbGxsTqrEkPNVxkdHR3x9PQkICCAoUOH6uyvrKzU2/Z748eP5/XXX7/HJouG0sTzrbfe0luNuraydzN37lxefPHFWuvc7fUiRHNX58Q6gYGBeHh4ADVz9WZlZZGcnEx8fDzDhg0jMjJSu+6TlZUVERERBo/zyy+/sH79etzc3Bq5+eJ+GT9+fJ0j65qVEO7UkNeLEM1dncl30KBBendK4eHhREVFsWnTJiIiIrR3PAqFggkTJhg8zssvv0zXrl2ZOnVqIzVb3G9Dhw69613y7zXk9SJEc9fgPl9LS0tUKhW+vr4cOXJEu5xQbb7++mvS0tJ47bXXsLa2Nrqhomlq6OtFiObC6AE3zZSTiYmJtZa5efMm69atw9/fn/79+xt7KmEG6vN6EaI5MXr1Ys3qppcvX661zObNmykuLmaOzBnR5BQXF5OXl2dwn4WFBY6Ojg06Xn1eL0I0J0YnXxsbGxQKBeXl5Qb3l5SUEBMTw9ixY2nfvr3RDRSmsWLFilr3PfTQQxw6dKhBx7vb60WI5sbo5FtQUIBaraZt27YG9+/atYvS0lImT55sdOOE6YSEhNCvXz+D+4zpu7/b60WI5sbo5KsZOOnevbvB/Xv27JGJQJqwXr16NeqzuXd7vQjR3Bg14KZWq4mNjQVg7NixevtzcnK4cOECTzzxxL21TpiFu71ehGiOGnznW1VVxcqVKzl37hxBQUEG5xf99ttvAXjkkUfuuYGiaavP60WI5qjO5HvixAmKi4uBmq8PZ2VlkZCQQE5ODn5+fsybN89gPc2ItqurayM3V9yLY8eOGXyCwdramokTJ9arrIZSqeTpp5/W2Wbs60WI5qjO5Lt161btz5aWljg5OeHh4cGiRYsYPnx4rfUKCgqAmjeo+OPYuXOnwe1KpVIv+dZWVqNTp056ydfY14sQzZHOMkJtHRxkgMwMXLhwgenTpxMTEyPxNAMST/OiiadMKSmEECYgyVcIIUxAp89Xs568aNo0cZR4mgeJp3nRxNFiXVRUtWajSuZgEEKIB0JnwK24oECewzQDGRkZLFmyhMjISImnGZB4mhdNPHW6HeTrwOZF4mleJJ7mRQbchBDCBCT5CiGECUjyFUIIE5DkK4QQJmBwbofY2Fi9VWZtbW1xdHTE09OTgICAWud6/c9//kNMTAz//e9/uXnzJu3atePxxx8nODgYZ2fnxr8CcVf3Ek+oWYsvLi6O5ORkMjMzqaiooG3btvTo0YNx48YxcuTI+3wFQpifOifWCQwMxMPDA4DS0lKysrJITk4mPj6eYcOGERkZiZ2dnbb89u3biYyMZMiQISxevBilUsnFixf5+OOPOXToEF988QWtW7e+v1ckatXQeAJcunSJsLAwsrOz8fb2ZurUqdjZ2ZGdnU0agkOQAAAgAElEQVRiYiJHjhzBz8+PZcuWYWVl9Nz8QjQ7db5bBg0axKhRo3S2hYeHExUVxaZNm4iIiNC5o/ryyy+xs7PjnXfe0S4189hjj1FdXc0777xDSkqKTKZtQg2NZ0lJCWFhYeTn5/P222/j6+urU1elUvHGG2+wb98+unXrRkhIyAO5DiHMQYNvVSwtLVGpVFy9epWkpCTS0tIYOHAgAC1atMDa2lrvDkhzN9WiRYtGaLJoTHXFMy4ujuzsbObMmaOXeKFmUcyIiAicnZ3p37//g266EE2a0QNu06ZNAyAxMVG77fnnn6e4uJjVq1dz/fp1SktLOXv2LJs2baJ79+6yrNAfmKF4JiUloVAomDRpUq31WrRogUqlkuQrRAMZ3UnXu3dv4LdVKwCefPJJ1qxZwz/+8Q+2bNmis/3vf/87NjY299BUcT8Zimd6ejpubm4yKb4Q94HRd742NjYoFArKy8u1286fP8/rr79Op06dWLVqFf/+979RqVSkpaWxePFiqqqqGqXRovH9Pp5qtZqKigpatWpl4pYJYZ6MvvMtKChArVbTtm1b7bZ//OMftGrVig8//FDbv+vt7c3DDz/Mq6++yo4dO+r8CCtM5/fxVCgU2NvbU1hYaOKWCWGejL7zTUtLA6B79+4A5Obmkp6ezsCBA/UG1nx8fAA4efKksacT99nv4wk1E7lkZWWRm5trqmYJYbaMSr5qtZrY2FgA7aNjFRUVANy6dUuvvGafdDv8MRmKJ8CYMWOorq5m48aNtda9ffs2ISEhrFmz5r63Uwhz0uDkW1VVxYoVKzh37hxBQUHa+UU7dOiAo6MjaWlp2mSrkZqaCoCnp+e9t1g0qtriCTBx4kS6dOnCli1biIuL06tbUVFBREQEZ8+e5eGHH36ArRai6auzz/fEiRMUFxcDUFlZSVZWFgkJCeTk5ODn58e8efO0ZRUKBXPnzmX58uWEhoYyefJk2rRpw48//siGDRvo2LEjgYGB9/dqRJ0aEk+Ali1bsnr1asLDw1m1ahXbt29n6NCh2Nvbk52dzaFDh7hx4wazZs3iueeeM8UlCdFk1Zl8t27dqv3Z0tISJycnPDw8WLRoEcOHD9crP27cOBwdHdm8eTNvvvkm5eXlODs74+/vT2hoKPb29o1/BaLeGhpPgM6dO7Np0yZ2795NfHw8u3fvpqSkBGdnZ3x8fJg0aRJeXl4P6hKEMBsGk++0adO0D9031BNPPCFfpviDuZd4Qs0kPEFBQQQFBTViq4Ro3mRKSSGEMAFJvkIIYQI63Q6a9eRF06aJo8TTPEg8zYsmjhbroqKqNRtVc+aYqj1CCNGsWJTeLKkGiP50I8UFBTrPeYqmKSMjgyVLlhAZGSnxNAMST/OiiadOt4O7uzu9evUyVZtEI5N4mheJp3mRATchhDABSb5CCGECknyFEMIEJPkKIYQJGPx6cWxsrM4qtlDzFVNHR0c8PT0JCAhg6NChBg948uRJPvnkE77//nsqKytxd3dnypQpjBs3rvFbL+rFUDw17Ozs6Nq1K8888wwTJ05EodD9e3zz5k1iY2NJTk7mypUrlJeXY2tri5ubG76+vgQHB2NpaQnAqlWrDM5+ZsgXX3xBt27d7u3ChGjC6pxYJzAwEA8PDwBKS0vJysoiOTmZ+Ph4hg0bRmRkpHZlYoCjR48SHh6Oi4sLM2fORKlUcvDgQZYvX05hYSHPP//8/b0aUac74wk18/jm5uaSkJDAypUrOXfuHEuXLtXuLysrY8aMGWRkZODn50dgYCBKpZIbN26QlJREVFQUZ86c0c7lO3r0aJ1HocrKynjvvffo0aMHEydO1GmLs7Pz/b1YIf7g6ky+gwYNYtSoUTrbwsPDiYqKYtOmTUREROjcUb333nu0bNmSTz/9FCcnJwAmTJjA3Llz+Z//+R/GjRvHQw89dB8uQ9SHoXgChISEEBISwu7du3nhhRe0CXT//v2kp6ejUqkIDg7WqRMUFMTSpUvZs2cPqamp+Pj44O3tjbe3t7ZMQUEB7733Hh07dpRJeYT4nQb3+VpaWqJSqfD19eXIkSPa5WdKSkpIT09n0KBB2sQLYGFhweTJkykvLyclJaXxWi4ajZWVFY8//jgAWVlZ2u35+fkA9OnTx2C9BQsWEB8fr10mSghRf0YPuGmmKExMTAR+Wz7o9+u3AbRr1w6AixcvGns6cZ/99NNPADorUmhWHomOjiYvL0+vjlKp1FlAVQhRf0avXty7d28ALl++DMBDDz2Eo6MjZ8+epaqqCmtra23Z8+fPA7/dSQnTKC4u1kmiarWaX3/9ld27d5OcnMwTTzxBly5dtPsHDx5MUFAQcXFxBAQE0LdvX/r378+jjz5Kv379dPr7hRANY3TytbGxQaFQUF5eDvzWvfDhhx+yZMkSZs+ejYODA8eOHeOzzz4DDC+uKR6cFStWGNyuVCoJCgpCpVLp7Vu4cCH+/v7s3buXtLQ01q9fD4C1tTVDhgwhNDRUvvIqhBGMTr4FBQWo1Wqdj50zZsygqKiIL774Qtsd0a1bN5YsWUJoaCitWrW69xYLo4WEhNCvXz/t/1NTU4mNjUWlUvHss8/WWq9v37707dsXqIn7mTNnOHz4MPv27SM1NZXo6GjtJyEhRP0YnXw1A23du3fXblMoFPztb3/jpZde4sqVK7Ru3RpXV1eD/YniwevVq5fO89kDBw4kJSWF999/n5EjR+Lo6HjXYzg4ODBixAhGjBiBv78/c+bMISYmhsjIyPvZdCHMjlEDbmq1mtjYWADGjh2rt1+pVNK7d29cXV2B35aOv/OuS5ietbU1CxYsoKioiHfffVdn361btzhw4AB79+6ttf6AAQNQKBRcv379fjdVCLPT4ORbVVXFihUrOHfuHEFBQToP1a9atYqnnnpKuzw51AzybNmyhS5duvDoo482SqNF4xkyZAgjRozQdiFoWFlZsWHDBt544w2+++47g3Xj4+NRq9X07NnzQTVXCLNRZ7fDiRMntIm0srKSrKwsEhISyMnJwc/Pj3nz5umUf/LJJ/nqq68IDQ1l0qRJqNVqtmzZQkFBAStXrsTCwuL+XYkwWnh4OMePH2flypXExcVpHxdcvHgxYWFhhIaGMmLECLy8vFAqlRQWFnL69GlSUlLo1KkTs2bNMvEVCNH01Jl8t27dqv3Z0tISJycnPDw8WLRoEcOHD9cr/9hjj/HOO+/wySefaD/G9uvXj2XLlsmAzB9Yx44defHFF/n3v//Nxx9/zNy5cwHw8vIiNjaWbdu2kZKSQlpaGkVFRdjZ2eHm5sbs2bOZPHmyDKQKYQSdZYTaOjjIY0Nm4MKFC0yfPp2YmBiJpxmQeJoXTTxlSkkhhDABSb5CCGECOn2+mvXkRdOmiaPE0zxIPM2LJo4W66KiqjUbVXPmmKo9QgjRrOgMuBUXFOg8tyuapoyMDJYsWUJkZKTE0wxIPM2LJp463Q7u7u4ymmpGJJ7mReJpXmTATQghTECSrxBCmIAkXyGEMAFJvkIIYQIG53aIjY3VWZUYwNbWFkdHRzw9PQkICNCZF/b3cnNzWb58OceOHSMsLKzWJeOzsrKIiooiLS2N0tJSHn74YcaPH8+0adNQKOTvQmO7efMmcXFxJCcnk5mZSUVFBW3btqVHjx6MGzeOkSNHGqwTGxtLcnIyV65coby8HFtbW9zc3PD19SU4OBhLS8sHfzFCNHF1TqwTGBiIh4cHAKWlpWRlZZGcnEx8fDzDhg0jMjJSbx2vAwcO8Oabb2Jra1vniXNycggJCQEgODgYJycnTpw4wZo1a/jll19YsGDBvVyX+J1Lly4RFhZGdnY23t7eTJ06FTs7O7Kzs0lMTOTIkSP4+fmxbNkyrKxqXhZlZWXMmDGDjIwM/Pz8CAwMRKlUcuPGDZKSkoiKiuLMmTOsWbPGxFcnRNNTZ/IdNGgQo0aN0tkWHh5OVFQUmzZtIiIiQucO+fLly0RERDBz5kx8fHyYOXNmrceOjo6moKCA2NhY7WoYTz/9NDY2Nnz55ZdMmjRJnmlsJCUlJYSFhZGfn8/bb7+Nr6+vzn6VSsUbb7zBvn376Natm/aP4v79+0lPT0elUhEcHKxTJygoiKVLl7Jnzx5SU1Nl+XghGqjBn+0tLS1RqVT4+vpy5MgR7XJCAK1atSI6OprQ0NC7dhskJibSr18/nWWIAJ599lnUajWHDh1qaNNELeLi4sjOzuall17SS7xQsxhqREQEwcHB9O/fX7tds9p0nz59DB53wYIFxMfHS+IVwghGd6xOmzYNQLtQJoCLi4t2ocW65OTkUFBQwCOPPKK3r2fPnigUCn788UdjmyZ+JykpCYVCwaRJk2ot06JFC1QqlU7y9fT0BGo+pdy55LyGUqnUWUBVCFF/Ri+gqZkc/fLlyw2um5ubC2DwjatQKHBwcODXX381tmnid9LT03Fzc0OpVDao3uDBgwkKCiIuLo6AgAD69u1L//79efTRR+nXr59ef78Qov6MTr42NjYoFArKy8sbXLeiogKoWcDREGtrayorK41tmriDWq2moqLC6NUmFi5ciL+/P3v37iUtLY3169cDNTEaMmQIoaGh8pVXIYxgdPItKChArVYb9bFTs0ZYbQm2srKSli1bGts0cQeFQoG9vT2FhYVGH6Nv377a7qSCggLOnDnD4cOHtYtuRkdHyzJRQjSQ0X2+moG23w+Y1YezszPwW/fDnaqqqigsLNSWEffO3d2drKwsg7/vhnJwcGDEiBEsXbqUtWvXUllZSUxMTCO0Uojmxajkq1ariY2NBWDs2LENru/s7IyTkxM//PCD3r4ffvgBtVpd6wi7aLgxY8ZQXV3Nxo0bay1z+/ZtQkJCtM/s3rp1iwMHDrB3795a6wwYMACFQsH169cbvc1CmLsGJ9+qqipWrFjBuXPnCAoKMvpZ3KeeeoqzZ8/qPdXw+eefY2VlxejRo406rtA3ceJEunTpwpYtW4iLi9PbX1FRQUREBGfPnuXhhx8GwMrKig0bNvDGG2/w3XffGTxufHw8arWanj173tf2C2GO6uzzPXHiBMXFxUBNP2xWVhYJCQnk5OTg5+fHvHnzdMp///33XLx4EYBr165pt+3YsQMAV1dXBgwYAMCMGTM4dOgQc+fOZfr06Tg5OXH06FESExP5y1/+QseOHRv3Spuxli1bsnr1asLDw1m1ahXbt29n6NCh2Nvbk52dzaFDh7hx4wazZs3iueee09ZbvHgxYWFhhIaGMmLECLy8vFAqlRQWFnL69GlSUlLo1KkTs2bNMuHVCdE01Zl8t27dqv3Z0tISJycnPDw8WLRoEcOHD9crf/DgQTZv3qyzLSEhgYSEBKCmi0KTfNu0acP69et5//332bx5M2VlZbi6urJ48WKeffbZe74woatz585s2rSJ3bt3Ex8fz+7duykpKcHZ2RkfHx8mTZqEl5eXTh0vLy9iY2PZtm0bKSkppKWlUVRUhJ2dHW5ubsyePZvJkycb/SSFEM2ZzjJCbR0c5LEhM3DhwgWmT59OTEyMxNMMSDzNiyaeMnWYEEKYgCRfIYQwAZ0+X8168qJp08RR4mkeJJ7mRRNHi3VRUdWajao5c0zVHiGEaFZ0BtyKCwpkDl0zkJGRwZIlS4iMjJR4mgGJp3nRxFOn28Hd3V1GU82IxNO8SDzNiwy4CSGECUjyFUIIE5DkK4QQJiDJVwghTMDg3A6xsbE6qxID2Nra4ujoiKenJwEBAQwdOrTWg+bm5rJ8+XKOHTtGWFgYzz//fKOUFcbRxNPS0pI9e/bg5ORksNxPP/2kXZvvgw8+YNCgQTr7i4qK+Oqrrzh69CiZmZmUlZXh6OhIt27dGDt2LH5+fgYXTr158yaxsbEkJydz5coVysvLsbW1xc3NDV9fX4KDg7G0tNSWP3nyJKGhobzwwgv89a9/bcTfhHloavF8+eWXOX/+PIcPH268X4IZqHNincDAQDw8PAAoLS0lKyuL5ORk4uPjGTZsGJGRkXrreB04cIA333wTW1vbu568IWXFvVMoFOzZs4cXXnjB4P6dO3dibW1NVVWV3r7z588zf/58cnNz8fb2ZvLkybRu3Zrc3FyOHj3K66+/zvbt23nrrbdo06aNtl5ZWRkzZswgIyMDPz8/AgMDUSqV3Lhxg6SkJKKiojhz5ox2HmFRf00lnk8++aSsdGJAncl30KBBjBo1SmdbeHg4UVFRbNq0iYiICJ075MuXLxMREcHMmTPx8fFh5syZtR67IWVF4+jfvz+7du0y+Gatqqpi//79eHl5cerUKZ19+fn5zJs3j7KyMtatW6f3qWfu3Ll8+umnfPDBB/z9739n3bp1WFhYALB//37S09NRqVQEBwfr1AsKCmLp0qXs2bOH1NRUWYK+gZpKPO+cplT8psF9vpaWlqhUKnx9fTly5Ih2OSGAVq1aER0dTWhoqMGPK3dqSFnROIYNG0ZmZibffvut3r4jR45QWFjI448/rrfvs88+075hDXU3KRQKQkJCeOqppzh+/DjffPONdl9+fj5ArSuTLFiwgPj4eEm8Rmgq8Xz55ZcZOXJkQy/P7Bmd9TR9SYmJidptLi4u2oUW76YhZUXjGDRoEK1bt2bXrl16+3bt2oWHhweurq56+5KSkrCzs2PcuHF1Hn/q1KlAzQoXGp6engBER0eTl5enV0epVBq1CKuQeDZ1RidfTR/O5cuXG60x4v6ysbHBz8+PgwcPUlpaqt2em5vL8ePHeeaZZ6iurtapU1VVRVZWFt27d8fa2rrO43t4eGBhYUFmZqZ22+DBgwkKCiItLY2AgAD+8pe/8OGHH3Ls2DGdNoiGk3g2bUYnXxsbGxQKBeXl5Y3ZHnGfjR8/nrKyMg4ePKjd9vXXX2NlZYW/v79e+bKyMoB6rVZhZWVFy5Yt9ZapX7hwIZ988gkTJkwgLy+P9evXo1KpGDVqFPPnz+fChQv3eFXNl8Sz6apzwK0uBQUFqNVq+YjRxHh4eNCzZ0927tzJ+PHjAdi9ezcjR47E3t5er3zr1q2xsrKiqKjorseuqqqivLwcR0dHvX19+/bVdjMVFBRw5swZDh8+zL59+0hNTSU6OlpGxI0g8Wy6jL7z1Qy0de/evdEaIx6M8ePHc/bsWS5fvszZs2fJzMystf/PwsICNzc3Ll68qL1rqs0PP/xAdXU13bp1q7Ocg4MDI0aMYOnSpaxdu5bKykpiYmKMvp7mTuLZNBmVfNVqNbGxsUDNopiiaRk7diw2NjYcOHCAffv20a5dO70H8O/k5+dHZWUlX375ZZ3H3bJlCwBPP/00ALdu3eLAgQPs3bu31joDBgxAoVBw/fp1I65EgMSzqWpwt0NVVRUrV67k3LlzBAUFyfyiTZC9vT0jR47k6NGj5Ofn88wzz9T5uN+UKVPYuXMnH330EZ07d9Z7bKi6uprPPvuMAwcO4O/vr/04amVlxYYNG8jIyMDV1VVvdWSoGUlXq9X07NmzUa+xOZF4Nk11Jt8TJ05QXFwMQGVlJVlZWSQkJJCTk4Ofnx/z5s3TKf/9999z8eJFAK5du6bdtmPHDgBcXV21S8c3pKxofBMmTODll1/GwsKCZ555ps6ydnZ2vPvuu7zyyiu88soreHt7M3jwYJRKJXl5eRw9epSLFy8yfPhwFi9erFN38eLFhIWFERoayogRI/Dy8kKpVFJYWMjp06dJSUmhU6dOzJo1635ertmTeDY9dSbfrVu3an+2tLTEyckJDw8PFi1axPDhw/XKHzx4kM2bN+tsS0hIICEhAaj5eKRJqA0pKxrfwIED6dixI+3bt6dTp053Ld+1a1c2b97Mrl27OHjwIF988QUlJSU4OjrSs2dPXnrpJZ588km9el5eXsTGxrJt2zZSUlJIS0ujqKgIOzs73NzcmD17NpMnT67X6LuoncSz6dFZRqitg4PMlG8GLly4wPTp04mJiZF4mgGJp3nRxFO+1yuEECYgyVcIIUxAp89Xs568aNo0cZR4mgeJp3nRxNFiXVSU9svfqjlzTNUeIYRoVnQG3IoLCuS5XTOQkZHBkiVLiIyMlHiaAYmnedHEU6fbwd3dXUZTzYjE07xIPM2LDLgJIYQJSPIVQggTkOQrhBAmIMlXCCFMwODcDrGxsTqrEgPY2tri6OiIp6cnAQEBBhfe08jNzWX58uUcO3aMsLAwnn/+eYPl0tPT+fe//813331HYWEh7du3Z+TIkbz44osolcp7uCwhzJfm/WlpacmePXtwcnIyWO6nn37SrrX4wQcfaKeZPHnyJKGhobzwwgv89a9/1Za/efMmsbGxJCcnc+XKFcrLy7G1tcXNzQ1fX1+Cg4OxtLTUO09RURFfffUVR48eJTMzk7KyMhwdHenWrRtjx47Fz89PFsk1oM6JdQIDA/Hw8ACgtLSUrKwskpOTiY+PZ9iwYURGRmJnZ6dT58CBA7z55pvY2trWeeKffvqJmTNnYmdnR1BQEM7Ozpw6dYqNGzeSmprKpk2bJGBC1EGhULBnzx6DS8cD7Ny5E2tra6qqqu56rLKyMmbMmEFGRgZ+fn4EBgaiVCq5ceMGSUlJREVFcebMGdasWaNT7/z588yfP5/c3Fy8vb2ZPHkyrVu3Jjc3l6NHj/L666+zfft23nrrLdq0adMo120u6ky+gwYNYtSoUTrbwsPDiYqKYtOmTUREROjcIV++fJmIiAhmzpyJj48PM2fOrPXYUVFRVFVV8fHHH9O5c2cAxo0bh42NDdu2bSMtLY3Bgwffy7UJYdb69+/Prl27DCbfqqoq9u/fj5eXF6dOnbrrsfbv3096ejoqlYrg4GCdfUFBQSxdupQ9e/aQmpqqXRZes/x8WVkZ69at0/s0PHfuXD799FM++OAD/v73v7Nu3TosLCzu4YrNS4NvLS0tLVGpVPj6+nLkyBHtckJQsyhfdHQ0oaGhd71rHTNmDIsWLdImXg1vb28AmQlfiLsYNmwYmZmZfPvtt3r7jhw5QmFhIY8//ni9jpWfnw9Anz59DO5fsGAB8fHx2sQL8Nlnn2kTsKFuSIVCQUhICE899RTHjx/nm2++qVdbmgujP9dr+pISExO121xcXLSz3t/Nn/70JyZMmKC3/cqVKwDyTR4h7mLQoEG0bt2aXbt26e3btWsXHh4euLq61utYnp6eAERHR5OXl6e3X6lU6i2Wm5SUhJ2dXa3rxWlMnToVqFnlQvzG6OSrWZn08uXLjdaY9PR0Nm/ejLe3d72TuBDNlY2NDX5+fhw8eJDS0lLt9tzcXI4fP84zzzxDdXV1HUf4zeDBgwkKCiItLY2AgAD+8pe/8OGHH3Ls2DGdY2tUVVWRlZVF9+7dsba2rvPYHh4eWFhYkJmZ2bALNHNGJ18bGxsUCgXl5eWN0pBLly6hUqlwcHAgMjKyUY4phLkbP348ZWVlHDx4ULvt66+/xsrKCn9//wYda+HChXzyySdMmDCBvLw81q9fj0qlYtSoUcyfP58LFy5oy2pWPq7PihVWVla0bNmSwsLCBrXH3DV4AU2NgoIC1Gq13kcRY6SkpLBkyRIefvhh1q5di7Oz8z0fU4jmwMPDg549e7Jz507Gjx8PwO7duxk5ciT29vYNPl7fvn21nzoLCgo4c+YMhw8fZt++faSmphIdHU3v3r1p3bo1VlZWFBUV3fWYVVVVlJeX4+jo2OD2mDOj73w1A23du3e/pwZ8/vnnzJ8/Hx8fH9avXy+JV4gGGj9+PGfPnuXy5cucPXuWzMzMu/bD1oeDgwMjRoxg6dKlrF27lsrKSmJiYgCwsLDAzc2Nixcvau+Ca/PDDz9QXV1Nt27d7rlN5sSo5KtWq4mNjQVqFro01pYtW1i9ejXBwcH1ejZYCKFv7Nix2NjYcODAAfbt20e7du20X6ioj1u3bnHgwAH27t1ba5kBAwagUCh0nkLy8/OjsrKSL7/8ss7jb9myBYCnn3663m1qDhrc7VBVVcXKlSs5d+4cQUFBRj+VcPbsWVavXs2f//xn5s6da9QxhBBgb2/PyJEjOXr0KPn5+TzzzDMN+oKSlZUVGzZsICMjA1dXV7y8vPTKxMfHo1ar6dmzp3bblClT2LlzJx999BGdO3dm5MiROnWqq6v57LPPOHDgAP7+/jKI/jt1Jt8TJ05QXFwMQGVlJVlZWSQkJJCTk4Ofnx/z5s3TKf/9999z8eJFAK5du6bdtmPHDgBcXV0ZMGAAarWalStXYmNjg6urq3b/ndzd3enXr9+9X6EQzcCECRN4+eWXsbCw4Jlnnmlw/cWLFxMWFkZoaCgjRozAy8sLpVJJYWEhp0+fJiUlhU6dOjFr1ixtHTs7O959911eeeUVXnnlFby9vRk8eDBKpZK8vDyOHj3KxYsXGT58OIsXL27MyzULdSbfrVu3an+2tLTEyckJDw8PFi1axPDhw/XKHzx4kM2bN+tsS0hIICEhAaj5eDRgwADKy8u1SXrlypUGzz1+/HhJvkLU08CBA+nYsSPt27enU6dODa7v5eVFbGws27ZtIyUlhbS0NIqKirCzs8PNzY3Zs2czefJkvacbunbtyubNm9m1axcHDx7kiy++oKSkBEdHR3r27MlLL73Ek08+2ViXaVZ0lhFq6+AgM+WbgQsXLjB9+nRiYmIknmZA4mleNPGUmWuEEMIEJPkKIYQJ6PT5ataTF02bJo4ST/Mg8TQvmjharIuK0n75WzVnjqnaI4QQzYrOgFtxQYHMJmYGMjIyWLJkCZGRkRJPMyDxNC+aeOp0O7i7u8toqhmReJoXiad5kQE3IYQwAUm+QghhApJ8hRDCBCT5CiGECRic2yE2NlZnVWIAW1tbHB0d8fT0JCAgwOCCeRq5ubksX76cY8eOERYWxvPPP2+w3Pfff8/69es5f/48N2/epEOHDvj5+TFt2jSZXrKR3bx5k9jYWJKTk7ly5Qrl5eXY2tri5vbjrOQAAAdlSURBVOaGr68vwcHBWFpaGqwXFxdHcnIymZmZVFRU0LZtW3r06MG4ceP0ZrLSvHbeeustvZWvS0pK+H//7/+Rnp7OmjVrGDhw4P28ZLMm8Wz66pxYJzAwEA8PDwBKS0vJysoiOTmZ+Ph4hg0bRmRkJHZ2djp1Dhw4UK+5ef/3f/+XuXPn0rFjR6ZPn07r1q05ceIEH374IcePH+fjjz+WZaYbSVlZGTNmzCAjIwM/Pz8CAwNRKpXcuHGDpKQkoqKiOHPmDGvWrNGpd+nSJcLCwsjOzsbb25upU6diZ2dHdnY2iYmJHDlyBD8/P5YtW4aVVd2zk5aWlqJSqbh06RLvvvuuvFHvgcTTPNT5Gx40aJDeX7vw8HCioqLYtGkTEREROnfIly9fJiIigpkzZ+Lj48PMmTNrPfa6detQKpVs2LCBhx56CKiZFs/S0pJ9+/bx7bff0r9//3u5NvF/9u/fT3p6OiqViuDgYJ19QUFBLF26lD179pCamqpdGrykpISwsDDy8/N5++238fX11amnUql444032LdvH926dSMkJKTW81dUVDBv3jx+/PFH/vWvfzF48ODGv8hmROJpHho8mbqlpSUqlYqrV6+SlJREWlqa9q9eq1atiI6Opm/fvnz33Xd1HicgIIA2bdpoE6/GgAED2LdvH7/++mtDmyZqkZ+fD0CfPn0M7l+wYAEqlUpnPb64uDiys7OZM2eO3hsVahZQjYiIwNnZuc4/kpWVlcyfP5/vvvuOt99+u87uKlE/Ek/zYPQCmtOmTSMpKYnExERt8nVxccHFxaVe9SdPnmxw+08//QTUzBMqGoenpycA0dHRuLu76y16qlQqUSqVOtuSkpJQKBRMmjSp1uO2aNEClUpV6/5bt27x6quvcvLkSVatWsUTTzxxD1chNCSe5sHo5Nu7d2+gpqvhXqjVanJzc8nPzycpKYmvvvqKKVOm3PPCnOI3gwcPJigoiLi4OAICAujbty/9+/fn0UcfpV+/fnr99gDp6em4ubnpvYnr6/bt2yxevJijR4/WOvm+MI7E0zwYnXxtbGxQKBSUl5ffUwOuXbvGxIkTgZplSebOnVvr0xHCeAsXLsTf35+9e/eSlpbG+vXrAbC2tmbIkCGEhoZqv7qqVqupqKjQW7WgId5//31u3LhBy5YtiYuLw9/f3+g3vtAn8Wz6jE6+BQUFqNVqvY88DeXs7My7775LUVER58+f5+OPPyYlJYU1a9YY/AsujNe3b1/tIoYFBQWcOXOGw4cPs2/fPlJTU4mOjqZ3794oFArs7e0pLCw0+lwtWrRg48aNZGRk8Oqrr/Lqq6+ybt06g48/CeNIPJs2o79kkZaWBnDP3QMtW7Zk2LBhBAQEsGDBAlauXMmpU6fYuHHjPR1X1M3BwYERI0awdOlS1q5dS2VlJTExMdr97u7uZGVlkZuba9TxZ8+eTdeu/7+9+wmF7Y3jOP7+ofEnpluoYfzJXSjpbJz6JRtFGpbKn6QpzJRTty6yE1mwMTXkp7uxEcakKYOm1HAmm1n4U5RYWNhR2Pg3G4NxF5q5zZ24v0HpHs9rdXrOOdP36VPP1HOenucrVVVVKIrC5uYmIyMj71W+8BuR59/nVYNvKBTC6XQCT4dixuvy8hK3283Ozk7MvbKyMuDXhzfhbe7v71ldXWVlZeXZZ2RZJiEhgbOzs0hbTU0Nj4+PL/4JPjw80NHREbOe9HcWiwWTyYTb7WZ2djb+TggRIk/tiHvwvbu7Y3h4mP39fZqaml61v2hycjJ2ux2bzUYwGIy6t7GxAUBubm7cvyvESkpKYmpqiqGhoWeX/3m9XkKhEMXFxZG2+vp6ioqKmJ+fx+Vyxbxze3tLf38/e3t7GI3GP9YxODhIaWkpExMTrK+vv75Dn5zIUztenPPd2tri5uYGeFrfd3x8jKqqnJ+fYzKZ6O7ujnr+4OAgciT8yclJpG1paQmA/Px8ZFkmNTUVRVEYHx+nra2N2tpaMjIyODo6Ynl5Gb1eT0tLy7t39rPq6+ujq6uLzs5OKisrkSSJ9PR0rq6u2N3dxe/3k5eXh9VqjbyTkpKC3W6nt7cXm83G4uIiFRUV6PV6Tk9P8fl8XFxcYLVaaWho+GMNOp2O0dFRzGYzAwMDTE5ORlbMCPEReWrDi4PvwsJC5DoxMZGsrCxKSkqeXWqytraGw+GIalNVFVVVgacpClmWATCbzRiNRlwuFw6Hg0AggMFgoK6ujvb2dnJyct7cOeGJJEk4nU7cbjd+v5/t7W2ur69JS0ujsLAQRVFobm6O+RpeUFDAzMwMHo8Hr9eLx+MhEAiQnZ1NeXk5jY2NSJL0v+vIzMxkbGwMi8VCT08P09PTGAyG9+6u5ok8tSHqGKHML1/ETvkacHh4SGtrK3NzcyJPDRB5aks4T7GlpCAIwgcQg68gCMIHiJrzDZ8nL/zdwjmKPLVB5Kkt4Rz/+e/Hj8dw4/dv3z6qHkEQhE8l6oPbv7KMTqf76JqENwoGg/h8Pqqrq0WeGiDy1JZwnj8Br8niBVyyr5YAAAAASUVORK5CYII=;" vertex="1" parent="1">
          <mxGeometry x="20" y="130" width="144.07" height="110" as="geometry" />
        </mxCell>
      </root>
    </mxGraphModel>
  </diagram>
</mxfile>
